<?xml version="1.0" encoding="utf-8"?>
<!-- Generator: Adobe Illustrator 24.0.2, SVG Export Plug-In . SVG Version: 6.00 Build 0)  -->
<svg version="1.1" id="Layer_1" xmlns="http://www.w3.org/2000/svg" xmlns:xlink="http://www.w3.org/1999/xlink" x="0px" y="0px"
	 viewBox="0 0 20 20" style="enable-background:new 0 0 20 20;" xml:space="preserve">
<title>white_arrow</title>
<path d="M5.1,0.3L4.4,1C4.2,1.2,4.1,1.5,4.1,1.8c0,0.3,0.1,0.6,0.3,0.8l7.5,7.4l-7.5,7.5C4,17.9,4,18.6,4.4,19l0.7,0.7
	c0.4,0.4,1.1,0.4,1.5,0c0,0,0,0,0,0l8.9-8.9c0.2-0.2,0.3-0.5,0.4-0.8l0,0c0-0.3-0.1-0.6-0.4-0.8L6.6,0.3C6.2-0.1,5.5-0.1,5.1,0.3z"
	/>
</svg>
