<svg id="Capa_1" data-name="Capa 1" xmlns="http://www.w3.org/2000/svg" viewBox="0 0 20 20"><title>folder</title><path d="M18.33,6.67H4.17A1.65,1.65,0,0,0,2.55,7.93h0L.11,16.18a.41.41,0,0,0,0,.27A1.66,1.66,0,0,0,1.67,17.5H15.83a1.65,1.65,0,0,0,1.6-1.21v0l2.48-7.41a.2.2,0,0,0,0-.07A1.45,1.45,0,0,0,20,8.33,1.66,1.66,0,0,0,18.33,6.67Z"/><path d="M.36,11.15H.42a.43.43,0,0,0,.4-.3l.92-3.13v0A2.49,2.49,0,0,1,4.17,5.83H17a.42.42,0,0,0,.34-.17.43.43,0,0,0,0-.38,1.67,1.67,0,0,0-1.57-1.11H8.09L6.54,2.62a.38.38,0,0,0-.29-.12H1.67A1.67,1.67,0,0,0,0,4.17v6.57A.42.42,0,0,0,.36,11.15Z"/></svg>