<?xml version="1.0" encoding="utf-8"?>
<!-- Generator: Adobe Illustrator 24.0.3, SVG Export Plug-In . SVG Version: 6.00 Build 0)  -->
<svg version="1.1" id="Layer_1" xmlns="http://www.w3.org/2000/svg" xmlns:xlink="http://www.w3.org/1999/xlink" x="0px" y="0px"
	 viewBox="0 0 20 20" style="enable-background:new 0 0 20 20;" xml:space="preserve">
<style type="text/css">
	.st0{fill:#3639A4;}
</style>
<title>settings_icon</title>
<path class="st0" d="M10.6,19.8H9.4c-1,0-1.8-0.8-1.8-1.8v-0.4c-0.4-0.2-0.8-0.4-1.2-0.6l-0.3,0.3c-0.7,0.7-1.8,0.7-2.5,0l-0.9-0.9
	c-0.7-0.7-0.7-1.8,0-2.5L3,13.6c-0.2-0.4-0.4-0.8-0.5-1.2H2c-1,0-1.8-0.8-1.8-1.8V9.4c0-1,0.8-1.8,1.8-1.8h0.4
	C2.6,7.2,2.8,6.8,3,6.4L2.7,6.1C2,5.4,2,4.2,2.7,3.5l0.9-0.9C4.3,2,5.4,2,6.1,2.7L6.4,3c0.4-0.2,0.8-0.4,1.2-0.5V2
	c0-1,0.8-1.8,1.8-1.8h1.2c1,0,1.8,0.8,1.8,1.8v0.4c0.4,0.1,0.8,0.3,1.2,0.5l0.3-0.3c0.7-0.7,1.8-0.7,2.5,0l0.9,0.9
	c0.7,0.7,0.7,1.8,0,2.5L17,6.4c0.2,0.4,0.4,0.8,0.5,1.2H18c1,0,1.8,0.8,1.8,1.8v1.2c0,1-0.8,1.8-1.8,1.8h-0.4
	c-0.2,0.4-0.4,0.8-0.6,1.2l0.3,0.3c0.7,0.7,0.7,1.8,0,2.5l-0.9,0.9c-0.7,0.7-1.8,0.7-2.5,0L13.6,17c-0.4,0.2-0.8,0.4-1.2,0.5V18
	C12.3,19,11.6,19.7,10.6,19.8z M6.6,15.8c0.5,0.3,1.1,0.6,1.8,0.7c0.3,0.1,0.4,0.3,0.4,0.5V18c0,0.4,0.3,0.7,0.6,0.7h1.2
	c0.4,0,0.7-0.3,0.6-0.7v-0.8c0-0.3,0.2-0.5,0.4-0.5c0.6-0.2,1.2-0.4,1.8-0.7c0.2-0.1,0.5-0.1,0.7,0.1l0.6,0.6c0.3,0.3,0.7,0.3,0.9,0
	c0,0,0,0,0,0l0.9-0.9c0.3-0.3,0.3-0.7,0-0.9c0,0,0,0,0,0L16,14.2c-0.2-0.2-0.2-0.5-0.1-0.7c0.3-0.5,0.6-1.1,0.7-1.8
	c0.1-0.3,0.3-0.4,0.5-0.4H18c0.4,0,0.7-0.3,0.7-0.6V9.4c0-0.4-0.3-0.7-0.7-0.7h-0.8c-0.3,0-0.5-0.2-0.5-0.4
	c-0.2-0.6-0.4-1.2-0.7-1.8c-0.1-0.2-0.1-0.5,0.1-0.7l0.6-0.6c0.3-0.3,0.3-0.7,0-0.9c0,0,0,0,0,0l-0.9-0.9c-0.3-0.3-0.7-0.3-0.9,0
	c0,0,0,0,0,0l-0.6,0.6c-0.2,0.2-0.5,0.2-0.7,0.1c-0.5-0.3-1.1-0.6-1.8-0.7c-0.3-0.1-0.4-0.3-0.4-0.5V2c0-0.4-0.3-0.7-0.6-0.7H9.4
	C9,1.4,8.7,1.7,8.7,2v0.8c0,0.3-0.2,0.5-0.4,0.5C7.7,3.6,7.1,3.8,6.6,4.2C6.3,4.3,6.1,4.3,5.9,4.1L5.3,3.5C5,3.2,4.6,3.2,4.4,3.5
	c0,0,0,0,0,0L3.5,4.3C3.2,4.6,3.2,5,3.5,5.3c0,0,0,0,0,0l0.6,0.6c0.2,0.2,0.2,0.5,0.1,0.7C3.8,7.1,3.6,7.7,3.4,8.3
	C3.4,8.6,3.1,8.7,2.9,8.7H2C1.7,8.7,1.4,9,1.4,9.4v1.2c0,0.4,0.3,0.7,0.7,0.6h0.8c0.3,0,0.5,0.2,0.5,0.4c0.2,0.6,0.4,1.2,0.7,1.8
	c0.1,0.2,0.1,0.5-0.1,0.7l-0.6,0.6c-0.3,0.3-0.3,0.7,0,0.9c0,0,0,0,0,0l0.9,0.9c0.3,0.3,0.7,0.3,0.9,0c0,0,0,0,0,0l0.6-0.6
	C6.1,15.7,6.3,15.7,6.6,15.8L6.6,15.8z"/>
<path class="st0" d="M10,14.2c-2.3,0-4.2-1.9-4.2-4.2S7.7,5.8,10,5.8s4.2,1.9,4.2,4.2l0,0C14.2,12.3,12.3,14.2,10,14.2z M10,6.9
	c-1.7,0-3.1,1.4-3.1,3.1s1.4,3.1,3.1,3.1s3.1-1.4,3.1-3.1S11.7,6.9,10,6.9L10,6.9z"/>
<path class="st0" d="M10.6,19.8H9.4c-1,0-1.8-0.8-1.8-1.8v-0.4c-0.4-0.2-0.8-0.4-1.2-0.6l-0.3,0.3c-0.7,0.7-1.8,0.7-2.5,0l-0.9-0.9
	c-0.7-0.7-0.7-1.8,0-2.5L3,13.6c-0.2-0.4-0.4-0.8-0.5-1.2H2c-1,0-1.8-0.8-1.8-1.8V9.4c0-1,0.8-1.8,1.8-1.8h0.4
	C2.6,7.2,2.8,6.8,3,6.4L2.7,6.1C2,5.4,2,4.2,2.7,3.5l0.9-0.9C4.3,2,5.4,2,6.1,2.7L6.4,3c0.4-0.2,0.8-0.4,1.2-0.5V2
	c0-1,0.8-1.8,1.8-1.8h1.2c1,0,1.8,0.8,1.8,1.8v0.4c0.4,0.1,0.8,0.3,1.2,0.5l0.3-0.3c0.7-0.7,1.8-0.7,2.5,0l0.9,0.9
	c0.7,0.7,0.7,1.8,0,2.5L17,6.4c0.2,0.4,0.4,0.8,0.5,1.2H18c1,0,1.8,0.8,1.8,1.8v1.2c0,1-0.8,1.8-1.8,1.8h-0.4
	c-0.2,0.4-0.4,0.8-0.6,1.2l0.3,0.3c0.7,0.7,0.7,1.8,0,2.5l-0.9,0.9c-0.7,0.7-1.8,0.7-2.5,0L13.6,17c-0.4,0.2-0.8,0.4-1.2,0.5V18
	C12.3,19,11.6,19.7,10.6,19.8z M6.6,15.8c0.5,0.3,1.1,0.6,1.8,0.7c0.3,0.1,0.4,0.3,0.4,0.5V18c0,0.4,0.3,0.7,0.6,0.7h1.2
	c0.4,0,0.7-0.3,0.6-0.7v-0.8c0-0.3,0.2-0.5,0.4-0.5c0.6-0.2,1.2-0.4,1.8-0.7c0.2-0.1,0.5-0.1,0.7,0.1l0.6,0.6c0.3,0.3,0.7,0.3,0.9,0
	c0,0,0,0,0,0l0.9-0.9c0.3-0.3,0.3-0.7,0-0.9c0,0,0,0,0,0L16,14.2c-0.2-0.2-0.2-0.5-0.1-0.7c0.3-0.5,0.6-1.1,0.7-1.8
	c0.1-0.3,0.3-0.4,0.5-0.4H18c0.4,0,0.7-0.3,0.7-0.6V9.4c0-0.4-0.3-0.7-0.7-0.7h-0.8c-0.3,0-0.5-0.2-0.5-0.4
	c-0.2-0.6-0.4-1.2-0.7-1.8c-0.1-0.2-0.1-0.5,0.1-0.7l0.6-0.6c0.3-0.3,0.3-0.7,0-0.9c0,0,0,0,0,0l-0.9-0.9c-0.3-0.3-0.7-0.3-0.9,0
	c0,0,0,0,0,0l-0.6,0.6c-0.2,0.2-0.5,0.2-0.7,0.1c-0.5-0.3-1.1-0.6-1.8-0.7c-0.3-0.1-0.4-0.3-0.4-0.5V2c0-0.4-0.3-0.7-0.6-0.7H9.4
	C9,1.4,8.7,1.7,8.7,2v0.8c0,0.3-0.2,0.5-0.4,0.5C7.7,3.6,7.1,3.8,6.6,4.2C6.3,4.3,6.1,4.3,5.9,4.1L5.3,3.5C5,3.2,4.6,3.2,4.4,3.5
	c0,0,0,0,0,0L3.5,4.3C3.2,4.6,3.2,5,3.5,5.3c0,0,0,0,0,0l0.6,0.6c0.2,0.2,0.2,0.5,0.1,0.7C3.8,7.1,3.6,7.7,3.4,8.3
	C3.4,8.6,3.1,8.7,2.9,8.7H2C1.7,8.7,1.4,9,1.4,9.4v1.2c0,0.4,0.3,0.7,0.7,0.6h0.8c0.3,0,0.5,0.2,0.5,0.4c0.2,0.6,0.4,1.2,0.7,1.8
	c0.1,0.2,0.1,0.5-0.1,0.7l-0.6,0.6c-0.3,0.3-0.3,0.7,0,0.9c0,0,0,0,0,0l0.9,0.9c0.3,0.3,0.7,0.3,0.9,0c0,0,0,0,0,0l0.6-0.6
	C6.1,15.7,6.3,15.7,6.6,15.8L6.6,15.8z"/>
<path class="st0" d="M10,14.2c-2.3,0-4.2-1.9-4.2-4.2S7.7,5.8,10,5.8s4.2,1.9,4.2,4.2l0,0C14.2,12.3,12.3,14.2,10,14.2z M10,6.9
	c-1.7,0-3.1,1.4-3.1,3.1s1.4,3.1,3.1,3.1s3.1-1.4,3.1-3.1S11.7,6.9,10,6.9L10,6.9z"/>
<path class="st0" d="M10.6,19.8H9.4c-1,0-1.8-0.8-1.8-1.8v-0.4c-0.4-0.2-0.8-0.4-1.2-0.6l-0.3,0.3c-0.7,0.7-1.8,0.7-2.5,0l-0.9-0.9
	c-0.7-0.7-0.7-1.8,0-2.5L3,13.6c-0.2-0.4-0.4-0.8-0.5-1.2H2c-1,0-1.8-0.8-1.8-1.8V9.4c0-1,0.8-1.8,1.8-1.8h0.4
	C2.6,7.2,2.8,6.8,3,6.4L2.7,6.1C2,5.4,2,4.2,2.7,3.5l0.9-0.9C4.3,2,5.4,2,6.1,2.7L6.4,3c0.4-0.2,0.8-0.4,1.2-0.5V2
	c0-1,0.8-1.8,1.8-1.8h1.2c1,0,1.8,0.8,1.8,1.8v0.4c0.4,0.1,0.8,0.3,1.2,0.5l0.3-0.3c0.7-0.7,1.8-0.7,2.5,0l0.9,0.9
	c0.7,0.7,0.7,1.8,0,2.5L17,6.4c0.2,0.4,0.4,0.8,0.5,1.2H18c1,0,1.8,0.8,1.8,1.8v1.2c0,1-0.8,1.8-1.8,1.8h-0.4
	c-0.2,0.4-0.4,0.8-0.6,1.2l0.3,0.3c0.7,0.7,0.7,1.8,0,2.5l-0.9,0.9c-0.7,0.7-1.8,0.7-2.5,0L13.6,17c-0.4,0.2-0.8,0.4-1.2,0.5V18
	C12.3,19,11.6,19.7,10.6,19.8z M6.6,15.8c0.5,0.3,1.1,0.6,1.8,0.7c0.3,0.1,0.4,0.3,0.4,0.5V18c0,0.4,0.3,0.7,0.6,0.7h1.2
	c0.4,0,0.7-0.3,0.6-0.7v-0.8c0-0.3,0.2-0.5,0.4-0.5c0.6-0.2,1.2-0.4,1.8-0.7c0.2-0.1,0.5-0.1,0.7,0.1l0.6,0.6c0.3,0.3,0.7,0.3,0.9,0
	c0,0,0,0,0,0l0.9-0.9c0.3-0.3,0.3-0.7,0-0.9c0,0,0,0,0,0L16,14.2c-0.2-0.2-0.2-0.5-0.1-0.7c0.3-0.5,0.6-1.1,0.7-1.8
	c0.1-0.3,0.3-0.4,0.5-0.4H18c0.4,0,0.7-0.3,0.7-0.6V9.4c0-0.4-0.3-0.7-0.7-0.7h-0.8c-0.3,0-0.5-0.2-0.5-0.4
	c-0.2-0.6-0.4-1.2-0.7-1.8c-0.1-0.2-0.1-0.5,0.1-0.7l0.6-0.6c0.3-0.3,0.3-0.7,0-0.9c0,0,0,0,0,0l-0.9-0.9c-0.3-0.3-0.7-0.3-0.9,0
	c0,0,0,0,0,0l-0.6,0.6c-0.2,0.2-0.5,0.2-0.7,0.1c-0.5-0.3-1.1-0.6-1.8-0.7c-0.3-0.1-0.4-0.3-0.4-0.5V2c0-0.4-0.3-0.7-0.6-0.7H9.4
	C9,1.4,8.7,1.7,8.7,2v0.8c0,0.3-0.2,0.5-0.4,0.5C7.7,3.6,7.1,3.8,6.6,4.2C6.3,4.3,6.1,4.3,5.9,4.1L5.3,3.5C5,3.2,4.6,3.2,4.4,3.5
	c0,0,0,0,0,0L3.5,4.3C3.2,4.6,3.2,5,3.5,5.3c0,0,0,0,0,0l0.6,0.6c0.2,0.2,0.2,0.5,0.1,0.7C3.8,7.1,3.6,7.7,3.4,8.3
	C3.4,8.6,3.1,8.7,2.9,8.7H2C1.7,8.7,1.4,9,1.4,9.4v1.2c0,0.4,0.3,0.7,0.7,0.6h0.8c0.3,0,0.5,0.2,0.5,0.4c0.2,0.6,0.4,1.2,0.7,1.8
	c0.1,0.2,0.1,0.5-0.1,0.7l-0.6,0.6c-0.3,0.3-0.3,0.7,0,0.9c0,0,0,0,0,0l0.9,0.9c0.3,0.3,0.7,0.3,0.9,0c0,0,0,0,0,0l0.6-0.6
	C6.1,15.7,6.3,15.7,6.6,15.8L6.6,15.8z"/>
<path class="st0" d="M10,14.2c-2.3,0-4.2-1.9-4.2-4.2S7.7,5.8,10,5.8s4.2,1.9,4.2,4.2l0,0C14.2,12.3,12.3,14.2,10,14.2z M10,6.9
	c-1.7,0-3.1,1.4-3.1,3.1s1.4,3.1,3.1,3.1s3.1-1.4,3.1-3.1S11.7,6.9,10,6.9L10,6.9z"/>
<path class="st0" d="M10.6,19.8H9.4c-1,0-1.8-0.8-1.8-1.8v-0.4c-0.4-0.2-0.8-0.4-1.2-0.6l-0.3,0.3c-0.7,0.7-1.8,0.7-2.5,0l-0.9-0.9
	c-0.7-0.7-0.7-1.8,0-2.5L3,13.6c-0.2-0.4-0.4-0.8-0.5-1.2H2c-1,0-1.8-0.8-1.8-1.8V9.4c0-1,0.8-1.8,1.8-1.8h0.4
	C2.6,7.2,2.8,6.8,3,6.4L2.7,6.1C2,5.4,2,4.2,2.7,3.5l0.9-0.9C4.3,2,5.4,2,6.1,2.7L6.4,3c0.4-0.2,0.8-0.4,1.2-0.5V2
	c0-1,0.8-1.8,1.8-1.8h1.2c1,0,1.8,0.8,1.8,1.8v0.4c0.4,0.1,0.8,0.3,1.2,0.5l0.3-0.3c0.7-0.7,1.8-0.7,2.5,0l0.9,0.9
	c0.7,0.7,0.7,1.8,0,2.5L17,6.4c0.2,0.4,0.4,0.8,0.5,1.2H18c1,0,1.8,0.8,1.8,1.8v1.2c0,1-0.8,1.8-1.8,1.8h-0.4
	c-0.2,0.4-0.4,0.8-0.6,1.2l0.3,0.3c0.7,0.7,0.7,1.8,0,2.5l-0.9,0.9c-0.7,0.7-1.8,0.7-2.5,0L13.6,17c-0.4,0.2-0.8,0.4-1.2,0.5V18
	C12.3,19,11.6,19.7,10.6,19.8z M6.6,15.8c0.5,0.3,1.1,0.6,1.8,0.7c0.3,0.1,0.4,0.3,0.4,0.5V18c0,0.4,0.3,0.7,0.6,0.7h1.2
	c0.4,0,0.7-0.3,0.6-0.7v-0.8c0-0.3,0.2-0.5,0.4-0.5c0.6-0.2,1.2-0.4,1.8-0.7c0.2-0.1,0.5-0.1,0.7,0.1l0.6,0.6c0.3,0.3,0.7,0.3,0.9,0
	c0,0,0,0,0,0l0.9-0.9c0.3-0.3,0.3-0.7,0-0.9c0,0,0,0,0,0L16,14.2c-0.2-0.2-0.2-0.5-0.1-0.7c0.3-0.5,0.6-1.1,0.7-1.8
	c0.1-0.3,0.3-0.4,0.5-0.4H18c0.4,0,0.7-0.3,0.7-0.6V9.4c0-0.4-0.3-0.7-0.7-0.7h-0.8c-0.3,0-0.5-0.2-0.5-0.4
	c-0.2-0.6-0.4-1.2-0.7-1.8c-0.1-0.2-0.1-0.5,0.1-0.7l0.6-0.6c0.3-0.3,0.3-0.7,0-0.9c0,0,0,0,0,0l-0.9-0.9c-0.3-0.3-0.7-0.3-0.9,0
	c0,0,0,0,0,0l-0.6,0.6c-0.2,0.2-0.5,0.2-0.7,0.1c-0.5-0.3-1.1-0.6-1.8-0.7c-0.3-0.1-0.4-0.3-0.4-0.5V2c0-0.4-0.3-0.7-0.6-0.7H9.4
	C9,1.4,8.7,1.7,8.7,2v0.8c0,0.3-0.2,0.5-0.4,0.5C7.7,3.6,7.1,3.8,6.6,4.2C6.3,4.3,6.1,4.3,5.9,4.1L5.3,3.5C5,3.2,4.6,3.2,4.4,3.5
	c0,0,0,0,0,0L3.5,4.3C3.2,4.6,3.2,5,3.5,5.3c0,0,0,0,0,0l0.6,0.6c0.2,0.2,0.2,0.5,0.1,0.7C3.8,7.1,3.6,7.7,3.4,8.3
	C3.4,8.6,3.1,8.7,2.9,8.7H2C1.7,8.7,1.4,9,1.4,9.4v1.2c0,0.4,0.3,0.7,0.7,0.6h0.8c0.3,0,0.5,0.2,0.5,0.4c0.2,0.6,0.4,1.2,0.7,1.8
	c0.1,0.2,0.1,0.5-0.1,0.7l-0.6,0.6c-0.3,0.3-0.3,0.7,0,0.9c0,0,0,0,0,0l0.9,0.9c0.3,0.3,0.7,0.3,0.9,0c0,0,0,0,0,0l0.6-0.6
	C6.1,15.7,6.3,15.7,6.6,15.8L6.6,15.8z"/>
<path class="st0" d="M10,14.2c-2.3,0-4.2-1.9-4.2-4.2S7.7,5.8,10,5.8s4.2,1.9,4.2,4.2l0,0C14.2,12.3,12.3,14.2,10,14.2z M10,6.9
	c-1.7,0-3.1,1.4-3.1,3.1s1.4,3.1,3.1,3.1s3.1-1.4,3.1-3.1S11.7,6.9,10,6.9L10,6.9z"/>
</svg>
